<?xml version="1.0" encoding="UTF-8" standalone="no"?>
<!DOCTYPE svg PUBLIC "-//W3C//DTD SVG 1.1//EN"
 "http://www.w3.org/Graphics/SVG/1.1/DTD/svg11.dtd">
<!-- Generated by graphviz version 2.26.3 (20100126.1600)
 -->
<!-- Title: G Pages: 1 -->
<svg width="632pt" height="206pt"
 viewBox="0.00 0.00 632.00 206.00" xmlns="http://www.w3.org/2000/svg" xmlns:xlink="http://www.w3.org/1999/xlink">
<g id="graph1" class="graph" transform="scale(1 1) rotate(0) translate(4 202)">
<title>G</title>
<polygon fill="white" stroke="white" points="-4,5 -4,-202 629,-202 629,5 -4,5"/>
<g id="graph2" class="cluster"><title>cluster_global</title>
<polyline fill="none" stroke="gray" points="406,-8 604,-8 "/>
<path fill="none" stroke="gray" d="M604,-8C610,-8 616,-14 616,-20"/>
<polyline fill="none" stroke="gray" points="616,-20 616,-178 "/>
<path fill="none" stroke="gray" d="M616,-178C616,-184 610,-190 604,-190"/>
<polyline fill="none" stroke="gray" points="604,-190 406,-190 "/>
<path fill="none" stroke="gray" d="M406,-190C400,-190 394,-184 394,-178"/>
<polyline fill="none" stroke="gray" points="394,-178 394,-20 "/>
<path fill="none" stroke="gray" d="M394,-20C394,-14 400,-8 406,-8"/>
<text text-anchor="middle" x="505" y="-176.1" font-family="Times Roman,serif" font-size="11.00" fill="gray">global</text>
</g>
<!-- \\Thumburl -->
<g id="node2" class="node"><title>\\Thumburl</title>
<a xlink:href="libraries.thumburl.html" xlink:title="Thumburl" target="_parent">
<polygon fill="none" stroke="black" points="540,-160 470,-160 470,-124 540,-124 540,-160"/>
<text text-anchor="middle" x="505" y="-139.1" font-family="Courier,monospace" font-size="11.00">Thumburl</text>
</a>
</g>
<!-- \\TestThumburl -->
<g id="node3" class="node"><title>\\TestThumburl</title>
<a xlink:href="tests.thumburl.test.html" xlink:title="TestThumburl" target="_parent">
<polygon fill="none" stroke="black" points="554,-106 456,-106 456,-70 554,-70 554,-106"/>
<text text-anchor="middle" x="505" y="-85.1" font-family="Courier,monospace" font-size="11.00">TestThumburl</text>
</a>
</g>
<!-- \\PHPUnit_Framework_TestCase -->
<g id="node6" class="node"><title>\\PHPUnit_Framework_TestCase</title>
<ellipse fill="none" stroke="black" cx="165" cy="-88" rx="164.756" ry="18.3848"/>
<text text-anchor="middle" x="165" y="-84.4" font-family="Times Roman,serif" font-size="14.00" fill="gray">\PHPUnit_Framework_TestCase</text>
</g>
<!-- \\TestThumburl&#45;&gt;\\PHPUnit_Framework_TestCase -->
<g id="edge3" class="edge"><title>\\TestThumburl&#45;&gt;\\PHPUnit_Framework_TestCase</title>
<path fill="none" stroke="black" d="M455.924,-88C424.939,-88 382.84,-88 340.299,-88"/>
<polygon fill="none" stroke="black" points="340.065,-84.5001 330.065,-88 340.065,-91.5001 340.065,-84.5001"/>
</g>
<!-- \\Thumburl_Thumburl_Controller -->
<g id="node4" class="node"><title>\\Thumburl_Thumburl_Controller</title>
<a xlink:href="controllers.thumburl.html" xlink:title="Thumburl_Thumburl_Controller" target="_parent">
<polygon fill="none" stroke="black" points="608,-52 402,-52 402,-16 608,-16 608,-52"/>
<text text-anchor="middle" x="505" y="-31.1" font-family="Courier,monospace" font-size="11.00">Thumburl_Thumburl_Controller</text>
</a>
</g>
<!-- \\Controller -->
<g id="node8" class="node"><title>\\Controller</title>
<ellipse fill="none" stroke="black" cx="165" cy="-34" rx="63.1385" ry="18.3848"/>
<text text-anchor="middle" x="165" y="-30.4" font-family="Times Roman,serif" font-size="14.00" fill="gray">\Controller</text>
</g>
<!-- \\Thumburl_Thumburl_Controller&#45;&gt;\\Controller -->
<g id="edge5" class="edge"><title>\\Thumburl_Thumburl_Controller&#45;&gt;\\Controller</title>
<path fill="none" stroke="black" d="M401.604,-34C349.093,-34 286.51,-34 238.902,-34"/>
<polygon fill="none" stroke="black" points="238.674,-30.5001 228.674,-34 238.674,-37.5001 238.674,-30.5001"/>
</g>
</g>
</svg>
